<svg xmlns="http://www.w3.org/2000/svg" viewBox="0 0 32 32">
  <defs>
    <linearGradient id="g" x1="0%" y1="0%" x2="100%" y2="100%">
      <stop offset="0%" stop-color="#3b82f6" />
      <stop offset="50%" stop-color="#8b5cf6" />
      <stop offset="100%" stop-color="#ec4899" />
    </linearGradient>
  </defs>
  <path d="M2 28 L8 12 L16 28" stroke="url(#g)" stroke-width="2" stroke-linecap="round" stroke-linejoin="round" opacity="0.5" fill="none"/>
  <path d="M10 28 L22 2 L30 28" stroke="url(#g)" stroke-width="2.5" stroke-linecap="round" stroke-linejoin="round" fill="none"/>
  <path d="M18 28 L26 16 L32 28" stroke="url(#g)" stroke-width="2" stroke-linecap="round" stroke-linejoin="round" opacity="0.6" fill="none"/>
  <path d="M22 2 L17.5 14 Q19 12.5 18.5 15 Q20 14 19.5 16 L24.5 16 Q24 14 25.5 15 Q25 12.5 26.5 14 Z" fill="url(#g)" opacity="0.3"/>
  <path d="M17.5 14 Q19 12.5 18.5 15 Q20 14 19.5 16 L24.5 16 Q24 14 25.5 15 Q25 12.5 26.5 14" stroke="url(#g)" stroke-width="1.2" stroke-linecap="round" stroke-linejoin="round" fill="none" opacity="0.6"/>
</svg>
